DataRate=1200.000000
DataType=double
version=3
OpenSimVersion=4.3-2021-08-27-4bc7ad9
endheader
time	f1_1	f1_2	f1_3	p1_1	p1_2	p1_3	m1_1	m1_2	m1_3	f2_1	f2_2	f2_3	p2_1	p2_2	p2_3	m2_1	m2_2	m2_3	f3_1	f3_2	f3_3	p3_1	p3_2	p3_3	m3_1	m3_2	m3_3
3.315	-0.4869338505313769	-0.1894083321208964	-0.272510439157486	-255.6999969482422	396.8999938964844	0	120.0035656064085	7.662826292772333	42.4700692107096	0.1636087052253764	0.3361464023859595	0.07196576148271561	253.7999877929688	225.3000030517578	0	40.80119016248489	126.8838646627068	7.755669085465996	0.4341156753602115	0.3645014972352512	0.7549964785575867	946.699951171875	380.3999938964844	0	147.5053758637521	-57.05387200774762	-17.58285381495815
3.315833333333333	-0.4067119827467475	-0.4087513197761984	0.8904496431350708	-255.6999969482422	396.8999938964844	0	-144.0592119399477	-86.6584591224306	-28.66137838762504	-0.2110072920154479	0.8047588894117503	-0.7052025198936462	253.7999877929688	225.3000030517578	0	42.70112409963718	19.09127826931467	4.248192425709224	0.06687181540013182	0.5191127143077773	-0.1347511559724808	946.699951171875	380.3999938964844	0	56.03992375657977	-42.69000456216839	65.90509130029312
3.316666666666667	-0.2903446107440006	0.04558113841518879	1.256301999092102	-255.6999969482422	396.8999938964844	0	-155.0990039498823	-171.5658420419703	85.9554817054882	0.1863156468531926	0.2525284427414519	0.5062842965126038	253.7999877929688	225.3000030517578	0	-110.0855465659234	-115.6710336856976	-2.368008232583495	0.3642190142826212	0.4191563146186292	-0.8472908139228821	946.699951171875	380.3999938964844	0	2.915869545853165	-55.68560042007291	111.7240962016838
3.3175	-0.1386031758220749	0.1320199503176598	-0.7140463590621948	-255.6999969482422	396.8999938964844	0	-35.61915098626085	-203.0236252674944	118.892293463249	0.03268053823202826	0.1149756048620964	-0.01507800444960594	253.7999877929688	225.3000030517578	0	19.20460437208781	36.10961044579927	55.60406895639624	0.06083093793696909	-0.04604044854185166	0.6625968813896179	946.699951171875	380.3999938964844	0	139.4948056405881	-82.14629282213234	57.86503430230589
3.318333333333333	0.9734128797581618	0.2957518990582691	-1.533050417900085	-255.6999969482422	396.8999938964844	0	30.45972056525317	126.0589314740691	-102.6721817965026	0.2975463474911204	-0.0610225620687848	0.5904822945594788	253.7999877929688	225.3000030517578	0	-124.4433078057102	33.58373097913417	36.87360313468072	0.6657376103053688	0.3122343229035469	0.2201453894376755	946.699951171875	380.3999938964844	0	-2.21059623265184	-66.53466288298394	-26.74957116864898
3.319166666666667	-0.3009289802978632	0.0610548514616094	-0.4534873068332672	-255.6999969482422	396.8999938964844	0	178.5441381805935	-59.39661575100487	-3.116684153248399	0.2134030485710946	0.1383326015091809	-0.2794670462608337	253.7999877929688	225.3000030517578	0	-105.2498606301038	86.84238225129431	15.30383264404343	-0.2949323975789915	0.5745799396982322	0.6672508120536804	946.699951171875	380.3999938964844	0	-100.1635531457755	-105.0251843755955	-52.23283210496977
3.32	-0.377874214117888	0.475423770644274	0.4473191201686859	-255.6999969482422	396.8999938964844	0	28.80164758068183	-77.59331395898047	-7.962061553957615	0.1919447138663175	0.04487828295737664	-0.628473699092865	253.7999877929688	225.3000030517578	0	326.1354933573694	39.15865114302169	-9.666624569227718	0.3182246660463119	0.1138382737751689	0.8392936587333679	946.699951171875	380.3999938964844	0	58.2471250860353	16.952471313215	-21.86392903241311
3.320833333333334	-0.2866153990524973	0.1800898784988245	0.4444886147975922	-255.6999969482422	396.8999938964844	0	6.982525336495032	-91.30333797817342	-22.39105310799872	-0.3521443097037012	0.3597187000441363	0.4235435128211975	253.7999877929688	225.3000030517578	0	-74.88900759723029	-4.691102825947991	24.20588320577181	0.34607594724558	0.4539901558113003	0.5725852847099304	946.699951171875	380.3999938964844	0	14.18354355769339	75.84660133929968	-73.54815947564282
3.321666666666667	0.02516686483239055	-0.1971935085366281	0.264934629201889	-255.6999969482422	396.8999938964844	0	-372.4980757455053	-132.3293828025768	-75.28988687550961	-0.4410486232364492	0.08765403822927337	0.07135540992021561	253.7999877929688	225.3000030517578	0	0.7239849546259502	202.5404143074493	19.27333363259932	0.2042785126052095	0.295375474410755	0.4867316782474518	946.699951171875	380.3999938964844	0	16.7723006340401	-18.35982997854193	33.66670050146988
3.3225	-0.1099342087001228	0.04352781586714113	0.4424363076686859	-255.6999969482422	396.8999938964844	0	22.44438714071936	138.0107071709859	-34.71970387318347	-0.1226996866611265	0.5840633675569552	-0.2713722586631775	253.7999877929688	225.3000030517578	0	2.436242117345222	-62.6955276318568	25.61946724144687	0.2034432395879355	0.1911903818616635	-0.6730049252510071	946.699951171875	380.3999938964844	0	-7.50240734267751	-117.2652036881148	20.98900173464755
